<svg xmlns="http://www.w3.org/2000/svg" viewBox="0 0 64 64">
  <defs>
    <linearGradient id="g" x1="0" y1="0" x2="1" y2="1">
      <stop offset="0%" stop-color="#ef4444"/>
      <stop offset="100%" stop-color="#b91c1c"/>
    </linearGradient>
  </defs>
  <rect x="4" y="4" width="56" height="56" rx="14" ry="14" fill="url(#g)"/>
  <path fill="#fff" d="M46 18c-6.1-1-10.7.7-16.2 5.2-4.3 3.4-6.8 4.7-9.5 4.7-3.8 0-7-2.5-8.7-5.5-.6-1.1-2.2-1-2.7.2-2.5 6-.3 12.3 4.5 15.8 4.9 3.7 11.7 3.5 17.5-1.5 4-3.4 7-4.8 9.8-4.8 3.5 0 6.5 2.4 8.2 5.1.7 1.1 2.2 1 2.7-.2 2.4-5.5.5-11.8-4-15.4-.7-.6-1.4-.9-2.3-1.1Z"/>
</svg>

