<svg xmlns="http://www.w3.org/2000/svg" viewBox="0 0 128 128" width="128" height="128">
  <defs>
    <linearGradient id="g" x1="0" y1="0" x2="1" y2="1">
      <stop offset="0%" stop-color="#ef4444"/>
      <stop offset="100%" stop-color="#b91c1c"/>
    </linearGradient>
    <filter id="shadow" x="-20%" y="-20%" width="140%" height="140%">
      <feDropShadow dx="0" dy="4" stdDeviation="6" flood-color="#b91c1c" flood-opacity="0.25"/>
    </filter>
  </defs>
  <!-- Rounded square background -->
  <rect x="8" y="8" width="112" height="112" rx="28" ry="28" fill="url(#g)"/>
  <!-- Abstract spark/ribbon mark -->
  <g filter="url(#shadow)">
    <path fill="#fff" fill-opacity="0.95" d="M90.6 38.2c-10.8-1.9-19 1.3-28.8 9.2-7.6 6.1-12 8.3-16.8 8.3-6.7 0-12.4-4.4-15.5-9.7-1.1-1.9-3.9-1.7-4.8.4-4.5 10.6-.6 21.9 7.9 28.2 8.8 6.6 20.9 6.2 31.2-2.6 7.1-6 12.5-8.6 17.4-8.6 6.2 0 11.5 4.2 14.7 9.2 1.2 1.9 3.9 1.7 4.8-.4 4.2-9.8.9-21.2-7.1-27.6-1.2-1-2.4-1.7-3.8-2.2Z"/>
    <path fill="#fff" fill-opacity="0.6" d="M98 82c-6.8 7.6-16.1 12-26.7 12-10.6 0-20-4.5-26.8-12 6.8-7.6 16.1-12 26.8-12 10.6 0 20 4.5 26.7 12Z"/>
  </g>
</svg>

